<svg width="24" height="25" viewBox="0 0 24 25" fill="none" xmlns="http://www.w3.org/2000/svg">
<g clip-path="url(#clip0_516_4786)">
<path d="M21.0032 24.3665H19.0032V19.3235C19.0024 18.5395 18.6906 17.7879 18.1362 17.2335C17.5818 16.6791 16.8302 16.3673 16.0462 16.3665H7.96017C7.17617 16.3673 6.42451 16.6791 5.87014 17.2335C5.31576 17.7879 5.00397 18.5395 5.00317 19.3235V24.3665H3.00317V19.3235C3.00476 18.0093 3.52753 16.7494 4.4568 15.8201C5.38607 14.8909 6.64598 14.3681 7.96017 14.3665H16.0462C17.3604 14.3681 18.6203 14.8909 19.5495 15.8201C20.4788 16.7494 21.0016 18.0093 21.0032 19.3235V24.3665Z" fill="white"/>
<path d="M12.0032 12.3665C10.8165 12.3665 9.65645 12.0146 8.66975 11.3553C7.68306 10.696 6.91403 9.75898 6.4599 8.66262C6.00577 7.56626 5.88695 6.35986 6.11846 5.19598C6.34998 4.03209 6.92142 2.96299 7.76054 2.12388C8.59965 1.28476 9.66875 0.713318 10.8326 0.481807C11.9965 0.250296 13.2029 0.369116 14.2993 0.823242C15.3956 1.27737 16.3327 2.0464 16.992 3.0331C17.6513 4.01979 18.0032 5.17983 18.0032 6.36652C18.0016 7.95733 17.3689 9.48253 16.2441 10.6074C15.1192 11.7323 13.594 12.3649 12.0032 12.3665ZM12.0032 2.36652C11.2121 2.36652 10.4387 2.60111 9.7809 3.04064C9.1231 3.48017 8.61041 4.10488 8.30766 4.83579C8.00491 5.56669 7.92569 6.37096 8.08004 7.14688C8.23438 7.9228 8.61534 8.63554 9.17475 9.19495C9.73416 9.75436 10.4469 10.1353 11.2228 10.2897C11.9987 10.444 12.803 10.3648 13.5339 10.062C14.2648 9.75929 14.8895 9.2466 15.3291 8.5888C15.7686 7.931 16.0032 7.15764 16.0032 6.36652C16.0032 5.30565 15.5817 4.28824 14.8316 3.53809C14.0815 2.78795 13.064 2.36652 12.0032 2.36652Z" fill="white"/>
</g>
<defs>
<clipPath id="clip0_516_4786">
<rect width="24" height="24" fill="white" transform="translate(0.00317383 0.366516)"/>
</clipPath>
</defs>
</svg>
