<svg width="27" height="26" viewBox="0 0 27 26" fill="none" xmlns="http://www.w3.org/2000/svg">
<g clip-path="url(#clip0_516_4792)">
<path d="M20.6324 8.38686L22.0493 7.56033C18.9837 2.2939 12.3759 0.282014 6.89554 2.94644V0.930145H5.25562V5.84994H10.1754V4.21001H8.08039C12.7192 2.24224 18.0975 4.03197 20.6324 8.38686Z" fill="white"/>
<path d="M5.66563 21.1635C1.86371 18.0758 0.863048 12.686 3.30331 8.43938L1.8815 7.61942C-0.901823 12.4662 0.151319 18.6069 4.39059 22.2492H2.38577V23.8892H7.30556V18.9694H5.66563V21.1635Z" fill="white"/>
<path d="M22.8553 11.2355L19.3771 14.7146L20.5365 15.874L21.9304 14.4801C21.3837 19.5603 17.1028 23.4158 11.9933 23.43V25.0699C18.081 25.0539 23.1311 20.3557 23.5859 14.2849L25.175 15.874L26.3344 14.7146L22.8553 11.2355Z" fill="white"/>
</g>
<defs>
<clipPath id="clip0_516_4792">
<rect width="26" height="26" fill="white" transform="translate(0.334473)"/>
</clipPath>
</defs>
</svg>
