<svg width="93" height="66" viewBox="0 0 93 66" fill="none" xmlns="http://www.w3.org/2000/svg">
<path d="M32.6293 48C32.6293 57.9411 40.6881 66 50.6293 66L87.5544 66C90.3158 66 92.5544 63.7614 92.5544 61L92.5544 27C92.5544 21.4772 88.0772 17 82.5544 17L37.6293 17C34.8678 17 32.6293 19.2386 32.6293 22L32.6293 48Z" fill="#FFF1DA"/>
<path d="M60.1948 27.8482V22.1518C60.1948 21.0351 59.1099 20.1299 57.7715 20.1299H55.1603C54.1163 20.1299 53.1899 19.5717 52.8617 18.7448C52.4962 17.8235 52.052 16.9322 51.5359 16.0763C51.0659 15.2967 51.2458 14.3542 51.9853 13.7371L53.8327 12.1957C54.7791 11.406 54.7791 10.1259 53.8327 9.33622L49.0052 5.30825C48.0588 4.51861 46.5245 4.51861 45.5781 5.30825L43.7307 6.8497C42.9911 7.4668 41.8616 7.6168 40.9272 7.22465C39.9014 6.79406 38.8331 6.42344 37.729 6.11841C36.7379 5.84457 36.069 5.07163 36.069 4.2005V2.02193C36.069 0.905231 34.984 0 33.6457 0H26.8186C25.4802 0 24.3953 0.905231 24.3953 2.02193V4.2006C24.3953 5.07173 23.7263 5.84467 22.7352 6.11851C21.6311 6.42354 20.5628 6.79417 19.537 7.22475C18.6027 7.6169 17.4731 7.4668 16.7335 6.8498L14.8861 5.30835C13.9397 4.51871 12.4054 4.51871 11.459 5.30835L6.63175 9.33632C5.68537 10.126 5.68537 11.4061 6.63175 12.1958L8.47918 13.7372C9.21866 14.3543 9.39856 15.2968 8.92856 16.0764C8.41251 16.9323 7.96831 17.8236 7.60273 18.7449C7.37075 19.3293 6.8401 19.7794 6.18033 19.9932C5.9065 20.0819 5.73095 20.2305 5.42469 20.2305H2.81355C1.47518 20.2305 0.390259 21.1357 0.390259 22.2524V27.7476C0.390259 28.8643 1.47518 29.7695 2.81355 29.7695H5.42469C6.46874 29.7695 7.3951 30.4283 7.72331 31.2552C8.08888 32.1765 8.53308 33.0677 9.04913 33.9237C9.51913 34.7033 9.33923 35.6458 8.59976 36.2629L6.8729 37.8043C5.92652 38.594 5.92652 39.8741 6.8729 40.6638L11.4593 44.4905C12.4057 45.2802 13.94 45.2802 14.8863 44.4905L16.7338 42.9491C17.4733 42.332 18.6029 42.182 19.5372 42.5741C20.5631 43.0047 21.8725 43.476 22.9766 43.781C23.9677 44.0548 24.6367 44.8278 24.6367 45.6989V47.8776C24.6367 48.9943 25.7216 49.8995 27.0599 49.8995H33.5253C34.8637 49.8995 35.9486 48.9943 35.9486 47.8776V45.6989C35.9486 45.4434 36.1267 45.2969 36.2331 45.0684C36.4893 44.5179 37.0288 44.0751 37.7291 43.8816C38.8332 43.5766 39.9015 43.2059 40.9274 42.7754C41.8617 42.3832 42.9912 42.5333 43.7308 43.1503L45.5782 44.6917C46.5246 45.4814 48.0589 45.4814 49.0053 44.6917L53.8328 40.6638C54.7792 39.8741 54.7792 38.594 53.8328 37.8043L51.9854 36.2629C51.2459 35.6458 51.066 34.7033 51.536 33.9237C52.0521 33.0678 52.4963 32.1765 52.8619 31.2552C53.1901 30.4283 54.1164 29.8701 55.1605 29.8701H57.7716C59.1099 29.8701 60.1948 28.9649 60.1948 27.8482Z" fill="#B6C4CF"/>
<path d="M36.2331 45.0684C36.127 45.2967 36.0692 45.5442 36.0692 45.7998V47.9778C36.0692 49.0945 34.984 50 33.6456 50H26.8188C25.4804 50 24.3952 49.0945 24.3952 47.9778V45.7998C24.3952 44.9285 23.726 44.1549 22.7349 43.8812C21.6317 43.5764 20.5634 43.2062 19.5373 42.7756C18.6029 42.3833 17.4731 42.5332 16.734 43.1499L14.8868 44.6911C13.9403 45.4808 12.4054 45.4808 11.4589 44.6911L6.63112 40.6639C5.68582 39.8742 5.68582 38.5935 6.63112 37.8038L8.47951 36.2625C9.21863 35.6458 9.39828 34.7032 8.92805 33.9235C8.41199 33.0674 7.96828 32.176 7.60294 31.2555C7.27498 30.4285 6.34777 29.8702 5.3036 29.8702H2.69318C1.35482 29.8702 0.269653 28.9648 0.269653 27.8481V22.1519C0.269653 21.0352 1.35482 20.1297 2.69318 20.1297H5.3036C5.60986 20.1297 5.90647 20.0815 6.18017 19.9929C6.17776 20.1187 6.17656 20.2454 6.17656 20.3722C6.17656 34.013 19.43 45.0714 35.7786 45.0714C35.9305 45.0714 36.0824 45.0704 36.2331 45.0684Z" fill="#EB5757"/>
<path d="M30.2322 41.5996C41.2197 41.5996 50.1268 34.1677 50.1268 25C50.1268 15.8323 41.2197 8.40039 30.2322 8.40039C19.2447 8.40039 10.3375 15.8323 10.3375 25C10.3375 34.1677 19.2447 41.5996 30.2322 41.5996Z" fill="#EB5757"/>
<path d="M30.2322 38.0784C38.889 38.0784 45.9068 32.223 45.9068 25C45.9068 17.7769 38.889 11.9215 30.2322 11.9215C21.5754 11.9215 14.5576 17.7769 14.5576 25C14.5576 32.223 21.5754 38.0784 30.2322 38.0784Z" fill="#F8F7F7"/>
</svg>
