<svg width="111" height="78" viewBox="0 0 111 78" fill="none" xmlns="http://www.w3.org/2000/svg">
<path d="M110.303 60C110.303 69.9411 102.244 78 92.3033 78L55.3783 78C52.6168 78 50.3782 75.7614 50.3782 73L50.3783 39C50.3783 33.4772 54.8554 29 60.3783 29L105.303 29C108.065 29 110.303 31.2386 110.303 34L110.303 60Z" fill="#FFF1DA"/>
<path d="M28.2385 50.6574L25.9756 49.7535L12.5325 66.3382H27.5352L28.9809 65.5516V51.225L28.2385 50.6574Z" fill="#407093"/>
<path d="M26.1802 49.8353L21.0925 47.803H20.1336L5.74707 65.5516L6.60355 66.3382H12.8034L26.1802 49.8353Z" fill="#EB5757"/>
<path d="M31.6815 65.5515H11.8433C10.9421 65.5515 10.2114 66.161 10.2114 66.9131V68.6385C10.2114 69.3903 10.9419 69.9998 11.843 69.9999H31.6815C32.5827 69.9999 33.3133 69.3904 33.3133 68.6385V66.9131C33.3133 66.161 32.5827 65.5515 31.6815 65.5515Z" fill="#EB5757"/>
<path d="M10.5494 68.6385V66.9131C10.5494 66.1611 11.2801 65.5515 12.1813 65.5515H1.67311C0.771899 65.5515 0.0412598 66.161 0.0412598 66.9131V68.6385C0.0412598 69.3904 0.771899 69.9999 1.67311 69.9999H12.1811C11.2799 69.9999 10.5494 69.3904 10.5494 68.6385Z" fill="#407093"/>
<path d="M25.4973 39.9827C24.8866 41.0338 24.5415 42.2123 24.5415 43.459C24.5415 46.8659 27.0983 49.7721 30.697 50.9218C32.242 50.5179 33.6148 49.7893 34.6992 48.8301V47.0893L25.4973 39.9827Z" fill="#EB5757"/>
<path d="M24.7023 43.4863C24.7023 42.2684 25.0399 41.1173 25.6375 40.0909L22.6961 37.8192H21.5025C19.6977 39.2399 18.5693 41.2525 18.5693 43.4862C18.5693 47.7893 22.75 51.2775 27.9072 51.2775C28.9815 51.2775 30.0116 51.1237 30.9719 50.8449C27.3224 49.7856 24.7023 46.8921 24.7023 43.4863Z" fill="#407093"/>
<path d="M78.9169 0.924695C77.4393 -0.308232 75.0435 -0.308232 73.566 0.924695L69.9551 3.93756V4.31941L74.462 8.23954L75.306 8.40223L78.9168 5.38937C80.3946 4.15658 80.3946 2.15762 78.9169 0.924695Z" fill="#FFD086"/>
<path d="M79.9151 2.41492C79.7575 1.86915 79.4275 1.35085 78.9169 0.924695C77.4393 -0.308232 75.0435 -0.308232 73.566 0.924695L69.9551 3.93756V4.31941L72.3446 6.3978C73.7692 5.16091 75.1836 3.94029 75.911 3.3334C77.1235 2.32182 78.8945 2.31403 79.9151 2.41492Z" fill="#FFC365"/>
<path d="M66.5552 8.95026C66.5137 8.95026 66.4718 8.94848 66.4296 8.94507L24.7021 5.51808C24.0062 5.46094 23.4977 4.944 23.5662 4.36336C23.6347 3.78272 24.2546 3.35875 24.9502 3.41549L66.6777 6.84234C67.3735 6.89949 67.8821 7.41642 67.8136 7.99706C67.7492 8.5427 67.1985 8.95026 66.5552 8.95026Z" fill="#EB5757"/>
<path d="M36.7703 15.4681C36.2088 15.4681 35.6957 15.1539 35.5466 14.6795C35.3692 14.1151 35.7737 13.5377 36.45 13.3896L66.2328 6.87154C66.9091 6.72374 67.6014 7.06103 67.7787 7.6254C67.9561 8.18964 67.5517 8.76714 66.8753 8.9152L37.0925 15.4333C36.9846 15.4568 36.8765 15.4681 36.7703 15.4681Z" fill="#407093"/>
<path d="M74.6437 47.136C73.9999 47.136 73.4492 46.7281 73.3851 46.1823L69.3035 11.3445C69.2355 10.764 69.7444 10.2472 70.4403 10.1903C71.1362 10.1362 71.7554 10.5584 71.8234 11.139L75.9051 45.9768C75.9731 46.5573 75.4642 47.0741 74.7683 47.131C74.7265 47.1342 74.6849 47.136 74.6437 47.136Z" fill="#EB5757"/>
<path d="M62.6333 37.2475C62.526 37.2475 62.4169 37.2359 62.3081 37.212C61.6322 37.0624 61.2296 36.4841 61.4088 35.9201L69.3358 10.9741C69.5149 10.41 70.2078 10.0746 70.8839 10.2236C71.5598 10.3732 71.9624 10.9515 71.7831 11.5155L63.8562 36.4615C63.7059 36.9348 63.1936 37.2475 62.6333 37.2475Z" fill="#407093"/>
<path d="M66.3267 6.96423L69.9467 3.9437L75.2969 8.40776L71.6768 11.4283L66.3267 6.96423Z" fill="#FFC365"/>
<path d="M69.0758 9.24573C69.9459 8.48557 71.3046 7.29995 72.6187 6.15999L69.9552 3.9375L66.3345 6.95843L69.0758 9.24573Z" fill="#FFA90F"/>
<path d="M72.4918 13.1519C72.1678 13.1519 71.8437 13.0487 71.5966 12.8425L64.6338 7.03305C64.1393 6.62044 64.1393 5.95175 64.6338 5.53899C65.1282 5.12665 65.9298 5.12665 66.4243 5.53899L73.3871 11.3484C73.8816 11.761 73.8816 12.4297 73.3871 12.8425C73.1398 13.0488 72.8159 13.1519 72.4918 13.1519Z" fill="#EB5757"/>
<path d="M73.3086 49.0376L30.9166 13.36C25.2963 23.9466 24.3204 35.3114 28.5279 45.1115C40.148 53.8573 57.5063 55.2003 73.4863 49.7026L73.3086 49.0376Z" fill="#B5DCFF"/>
<path d="M31.1425 13.55L21.4299 5.37573L20.4566 5.45585C13.6136 19.3031 15.6116 34.3917 27.2091 44.0684C27.9116 44.6545 28.6385 45.2107 29.3868 45.7383C24.498 35.9498 25.2925 24.3077 31.1425 13.55Z" fill="#8BCAFF"/>
<path d="M77.1828 46.5017L34.1883 10.6282C33.7652 10.6826 33.3579 10.8431 33.0321 11.1149L31.162 12.6754C30.7604 13.0105 30.5607 13.4481 30.5549 13.8874L73.4131 49.647C74.0503 50.1787 75.0835 50.1787 75.7207 49.647L77.183 48.4271C77.82 47.8955 77.82 47.0334 77.1828 46.5017Z" fill="#DBEDFF"/>
<path d="M31.2268 12.7021L33.0579 11.1743C33.3951 10.8929 33.821 10.7318 34.2605 10.6882L24.2934 2.37192C23.6561 1.84022 22.623 1.84022 21.9856 2.37192L20.5233 3.59199C19.8861 4.12369 19.8861 4.9857 20.5233 5.5174L30.6305 13.9506C30.6173 13.5 30.8147 13.0459 31.2268 12.7021Z" fill="#B5DCFF"/>
</svg>
