<svg width="61" height="50" viewBox="0 0 61 50" fill="none" xmlns="http://www.w3.org/2000/svg">
<path d="M54.5754 6.90083L33.9761 44.4008C33.8037 44.715 33.5115 44.9725 33.145 45.1333C32.7785 45.2941 32.3585 45.349 31.9506 45.2895C31.5428 45.2299 31.1701 45.0593 30.8908 44.8042C30.6115 44.5491 30.4415 44.224 30.4072 43.8797L28.6656 26.4474L7.77293 24.9943C7.36029 24.9657 6.97065 24.8238 6.66494 24.5908C6.35924 24.3577 6.1547 24.0468 6.08333 23.7065C6.01196 23.3662 6.07777 23.0157 6.27048 22.7099C6.46319 22.4041 6.77192 22.1603 7.14839 22.0165L52.0922 4.82895C52.4397 4.69609 52.8275 4.65512 53.2037 4.71153C53.5798 4.76795 53.9263 4.91904 54.1966 5.14454C54.4668 5.37003 54.6479 5.65912 54.7155 5.97298C54.7831 6.28685 54.734 6.61046 54.5748 6.90036L54.5754 6.90083Z" fill="#EB5757"/>
</svg>
