<svg width="317" height="264" viewBox="0 0 317 264" fill="none" xmlns="http://www.w3.org/2000/svg">
<path d="M176.05 146.829C174.409 147.281 172.794 147.97 171.306 148.851C167.432 151.101 165.073 153.981 166.038 155.282C167.003 156.584 170.926 155.814 174.801 153.564C176.307 152.706 177.663 151.669 178.786 150.518C179.308 149.964 179.438 149.328 179.116 148.896L177.863 147.206C177.544 146.772 176.833 146.625 176.05 146.829Z" fill="#D5D6DB"/>
<path d="M166.519 119.841C165.329 120.169 164.158 120.668 163.079 121.308C160.27 122.939 158.559 125.027 159.258 125.969C159.957 126.912 162.803 126.354 165.612 124.723C166.704 124.101 167.687 123.349 168.501 122.514C168.88 122.112 168.973 121.651 168.741 121.338L167.833 120.114C167.602 119.8 167.087 119.693 166.519 119.841Z" fill="#D5D6DB"/>
<path d="M151.189 122.349C150.929 122.353 150.646 122.437 150.395 122.583L143.788 126.431C143.236 126.752 142.988 127.284 143.235 127.62C143.292 127.697 143.372 127.76 143.471 127.804L158.673 134.612L180.702 121.783L151.189 122.349Z" fill="#EB5757"/>
<path d="M218.452 117.343L159.798 149.222L125.499 162.367L108.183 166.565L106.464 164.399L204.173 112.105C207.085 110.541 210.284 109.441 213.446 108.917C214.831 108.693 216.189 108.592 217.491 108.616C218.645 108.63 219.731 108.771 220.716 109.034C221.816 109.333 223.96 109.168 224.597 109.918C224.6 109.916 225.976 113.513 218.452 117.343Z" fill="#E1E6E9"/>
<path d="M161.691 147.587L134.875 179.904C134.537 180.354 134.688 180.804 135.213 180.909C135.535 180.973 135.94 180.894 136.289 180.697L142.801 177.038C144.054 176.333 145.178 175.486 146.105 174.549L197.07 127.046L161.691 147.587Z" fill="#EB5757"/>
<path d="M97.9075 146.164C97.4927 146.095 96.9864 146.208 96.5483 146.467L91.0472 149.716C90.2977 150.158 89.9627 150.891 90.2988 151.352C90.3628 151.44 90.4486 151.514 90.5535 151.571L104.859 159.421L121.054 150.001L97.9075 146.164Z" fill="#EB5757"/>
<path d="M110.592 162.03L102.176 171.078C102.052 171.208 102.069 171.355 102.213 171.404C102.317 171.44 102.463 171.417 102.586 171.345L107.609 168.539C107.648 168.517 107.684 168.491 107.714 168.462L119.902 156.831L110.592 162.03Z" fill="#EB5757"/>
<path d="M216.022 109.614C214.66 109.586 213.238 109.698 211.789 109.946C210.282 111.605 209.27 113.398 208.853 115.147C208.808 115.494 209.152 115.705 209.622 115.618C209.769 115.59 209.916 115.536 210.05 115.46L219.398 110.079C218.367 109.787 217.23 109.63 216.022 109.614Z" fill="#EB5757"/>
<path d="M196.071 119.325L202.38 115.534L207.569 122.749L201.261 126.54L196.071 119.325Z" fill="#D5D6DB"/>
<path d="M192.397 121.921C191.64 122.377 191.299 123.124 191.636 123.591L192.181 124.346C192.543 124.797 193.44 124.78 194.186 124.309C194.895 123.861 195.217 123.156 194.921 122.697L194.375 121.942C194.039 121.476 193.154 121.467 192.397 121.921Z" fill="#3A556A"/>
<path d="M187.046 124.694C186.289 125.149 185.948 125.897 186.285 126.363L186.83 127.119C187.192 127.569 188.09 127.553 188.835 127.082C189.545 126.633 189.866 125.929 189.57 125.47L189.025 124.714C188.688 124.249 187.803 124.239 187.046 124.694Z" fill="#3A556A"/>
<path d="M181.694 127.467C180.938 127.923 180.598 128.67 180.934 129.136L181.48 129.891C181.841 130.342 182.739 130.325 183.484 129.854C184.194 129.406 184.515 128.701 184.219 128.243L183.674 127.487C183.337 127.021 182.451 127.012 181.694 127.467Z" fill="#3A556A"/>
<path d="M176.343 130.24C175.587 130.696 175.247 131.442 175.584 131.908L176.129 132.664C176.491 133.114 177.388 133.098 178.134 132.627C178.843 132.178 179.165 131.474 178.869 131.015L178.323 130.259C177.986 129.793 177.1 129.784 176.343 130.24Z" fill="#3A556A"/>
<path d="M170.994 133.013C170.237 133.469 169.897 134.217 170.233 134.683L170.779 135.44C171.116 135.906 172.002 135.915 172.759 135.459C173.516 135.004 173.857 134.256 173.52 133.79L172.974 133.033C172.639 132.566 171.753 132.557 170.995 133.012C170.995 133.012 170.994 133.013 170.994 133.013Z" fill="#3A556A"/>
<path d="M165.643 135.785C164.886 136.242 164.546 136.989 164.883 137.456L165.429 138.212C165.765 138.679 166.652 138.687 167.408 138.232C168.165 137.776 168.506 137.029 168.17 136.562L167.624 135.806C167.288 135.339 166.402 135.329 165.645 135.784C165.644 135.785 165.643 135.785 165.643 135.785Z" fill="#3A556A"/>
<path d="M160.292 138.558C159.536 139.014 159.195 139.762 159.532 140.228L160.078 140.985C160.415 141.45 161.302 141.458 162.058 141.002C162.813 140.547 163.153 139.801 162.818 139.335L162.272 138.579C161.936 138.112 161.05 138.103 160.292 138.558Z" fill="#3A556A"/>
<path d="M154.941 141.33C154.185 141.787 153.844 142.534 154.181 143.001L154.727 143.757C155.064 144.223 155.951 144.231 156.707 143.775C157.462 143.319 157.802 142.574 157.467 142.108L156.922 141.351C156.585 140.884 155.699 140.875 154.941 141.33Z" fill="#3A556A"/>
<path d="M149.591 144.103C148.834 144.559 148.494 145.307 148.831 145.773L149.377 146.53C149.714 146.995 150.601 147.003 151.357 146.547C152.112 146.092 152.452 145.346 152.117 144.88L151.571 144.124C151.235 143.657 150.348 143.648 149.591 144.103Z" fill="#3A556A"/>
<path d="M144.239 146.876C143.482 147.332 143.141 148.079 143.477 148.545L143.478 148.546L144.024 149.303C144.362 149.769 145.248 149.776 146.005 149.32C146.759 148.865 147.099 148.119 146.765 147.653L146.219 146.897C145.882 146.43 144.996 146.421 144.239 146.876Z" fill="#3A556A"/>
<path d="M138.89 149.647C138.133 150.103 137.792 150.851 138.129 151.317L138.129 151.318L138.676 152.074C139.013 152.54 139.9 152.547 140.656 152.091C141.411 151.636 141.751 150.89 141.416 150.424L140.87 149.668C140.533 149.201 139.647 149.192 138.89 149.647Z" fill="#3A556A"/>
</svg>
