<svg width="39" height="44" viewBox="0 0 39 44" fill="none" xmlns="http://www.w3.org/2000/svg">
<path d="M27.0721 3.99512H11.3063C6.95275 3.99512 3.42346 7.97582 3.42346 12.8863V30.6686C3.42346 35.579 6.95275 39.5597 11.3063 39.5597H27.0721C31.4257 39.5597 34.955 35.579 34.955 30.6686V12.8863C34.955 7.97582 31.4257 3.99512 27.0721 3.99512Z" stroke="#828C9F" stroke-width="2.04167" stroke-linecap="round" stroke-linejoin="round"/>
<path d="M25.4958 20.6575C25.6904 22.1374 25.4663 23.6488 24.8554 24.9768C24.2444 26.3048 23.2778 27.3817 22.093 28.0543C20.9082 28.727 19.5654 28.9611 18.2558 28.7234C16.9462 28.4857 15.7364 27.7883 14.7985 26.7304C13.8606 25.6725 13.2422 24.308 13.0315 22.8309C12.8208 21.3537 13.0284 19.8393 13.6247 18.5029C14.2211 17.1665 15.1758 16.0763 16.3532 15.3872C17.5306 14.6982 18.8707 14.4454 20.1828 14.6648C21.5212 14.8887 22.7602 15.5921 23.717 16.6712C24.6737 17.7503 25.2974 19.1479 25.4958 20.6575Z" stroke="#828C9F" stroke-width="2.04167" stroke-linecap="round" stroke-linejoin="round"/>
<path d="M27.8604 11.9971H27.8752" stroke="#828C9F" stroke-width="2.04167" stroke-linecap="round" stroke-linejoin="round"/>
</svg>
