<svg width="40" height="46" viewBox="0 0 40 46" fill="none" xmlns="http://www.w3.org/2000/svg">
<path d="M38.3335 5.63902C36.7375 6.90881 34.9704 7.88 33.1002 8.51518C32.0964 7.21341 30.7624 6.29075 29.2786 5.87198C27.7948 5.45322 26.2327 5.55855 24.8037 6.17375C23.3746 6.78894 22.1476 7.88431 21.2885 9.3117C20.4294 10.7391 19.9797 12.4297 20.0002 14.1547V16.0346C17.0713 16.1202 14.169 15.3875 11.5519 13.9018C8.93478 12.416 6.68407 10.2233 5.0002 7.51887C5.0002 7.51887 -1.66646 24.4375 13.3335 31.9568C9.90108 34.5848 5.81213 35.9025 1.66687 35.7165C16.6669 45.1158 35.0002 35.7165 35.0002 14.0983C34.9987 13.5747 34.954 13.0524 34.8669 12.5381C36.5679 10.646 37.7682 8.2571 38.3335 5.63902Z" fill="#828C9F" stroke="#828C9F" stroke-width="2.15833" stroke-linecap="round" stroke-linejoin="round"/>
</svg>
